<?xml version="1.0" encoding="UTF-8"?>
<svg xmlns="http://www.w3.org/2000/svg" xmlns:xlink="http://www.w3.org/1999/xlink" viewBox="0 0 50 50" width="50px" height="50px">
<g id="surface188789708">
<path style=" stroke:none;fill-rule:nonzero;fill:rgb(1.960784%,1.960784%,1.960784%);fill-opacity:1;" d="M 6.550781 7.226562 C 6.109375 7.226562 5.75 7.585938 5.75 8.023438 L 5.75 36.574219 C 5.75 38.664062 6.359375 40.351562 7.601562 41.574219 C 9.570312 43.523438 12.394531 43.574219 12.675781 43.574219 L 38.101562 43.574219 C 38.144531 43.574219 38.417969 43.582031 38.800781 43.523438 C 36.308594 43.210938 32.699219 41.492188 32.699219 36.574219 L 32.699219 8.023438 C 32.699219 7.585938 32.34375 7.226562 31.898438 7.226562 Z M 34.300781 12.601562 L 34.300781 36.574219 C 34.300781 41.890625 39.429688 41.976562 39.648438 41.976562 C 40.082031 41.972656 43.648438 41.808594 44.199219 37.726562 C 44.238281 37.378906 44.25 37.015625 44.25 36.625 L 44.25 16.550781 C 44.25 16.546875 44.25 16.527344 44.25 16.523438 C 44.222656 15.367188 43.601562 13.332031 41.523438 12.773438 C 40.875 12.929688 40.335938 13.222656 39.925781 13.648438 C 38.867188 14.757812 38.898438 16.460938 38.898438 16.476562 L 38.898438 35.898438 C 38.898438 36.34375 38.542969 36.699219 38.101562 36.699219 C 37.65625 36.699219 37.300781 36.34375 37.300781 35.898438 L 37.300781 16.5 C 37.296875 16.441406 37.21875 14.210938 38.699219 12.601562 Z M 10.773438 13.800781 L 26.550781 13.800781 C 26.992188 13.800781 27.351562 14.160156 27.351562 14.601562 C 27.351562 15.039062 26.992188 15.398438 26.550781 15.398438 L 10.773438 15.398438 C 10.335938 15.398438 9.976562 15.039062 9.976562 14.601562 C 9.976562 14.160156 10.335938 13.800781 10.773438 13.800781 Z M 10.773438 17 L 26.550781 17 C 26.992188 17 27.351562 17.359375 27.351562 17.800781 C 27.351562 18.242188 26.992188 18.601562 26.550781 18.601562 L 10.773438 18.601562 C 10.335938 18.601562 9.976562 18.242188 9.976562 17.800781 C 9.976562 17.359375 10.335938 17 10.773438 17 Z M 11.148438 23.398438 L 16.574219 23.398438 C 17.015625 23.398438 17.375 23.757812 17.375 24.199219 C 17.375 24.640625 17.015625 25 16.574219 25 L 11.148438 25 C 10.710938 25 10.351562 24.640625 10.351562 24.199219 C 10.351562 23.757812 10.710938 23.398438 11.148438 23.398438 Z M 20.375 23.398438 L 26.550781 23.398438 C 26.992188 23.398438 27.351562 23.757812 27.351562 24.199219 C 27.351562 24.640625 26.992188 25 26.550781 25 L 20.375 25 C 19.933594 25 19.574219 24.640625 19.574219 24.199219 C 19.574219 23.757812 19.933594 23.398438 20.375 23.398438 Z M 11.148438 26.601562 L 16.574219 26.601562 C 17.015625 26.601562 17.375 26.957031 17.375 27.398438 C 17.375 27.84375 17.015625 28.199219 16.574219 28.199219 L 11.148438 28.199219 C 10.710938 28.199219 10.351562 27.84375 10.351562 27.398438 C 10.351562 26.957031 10.710938 26.601562 11.148438 26.601562 Z M 20.375 26.601562 L 26.550781 26.601562 C 26.992188 26.601562 27.351562 26.957031 27.351562 27.398438 C 27.351562 27.84375 26.992188 28.199219 26.550781 28.199219 L 20.375 28.199219 C 19.933594 28.199219 19.574219 27.84375 19.574219 27.398438 C 19.574219 26.957031 19.933594 26.601562 20.375 26.601562 Z M 20.375 29.625 L 26.550781 29.625 C 26.992188 29.625 27.351562 29.980469 27.351562 30.425781 C 27.351562 30.867188 26.992188 31.226562 26.550781 31.226562 L 20.375 31.226562 C 19.933594 31.226562 19.574219 30.867188 19.574219 30.425781 C 19.574219 29.980469 19.933594 29.625 20.375 29.625 Z M 11.148438 29.800781 L 16.574219 29.800781 C 17.015625 29.800781 17.375 30.15625 17.375 30.601562 C 17.375 31.042969 17.015625 31.398438 16.574219 31.398438 L 11.148438 31.398438 C 10.710938 31.398438 10.351562 31.042969 10.351562 30.601562 C 10.351562 30.15625 10.710938 29.800781 11.148438 29.800781 Z M 20.375 32.824219 L 26.550781 32.824219 C 26.992188 32.824219 27.351562 33.179688 27.351562 33.625 C 27.351562 34.070312 26.992188 34.425781 26.550781 34.425781 L 20.375 34.425781 C 19.933594 34.425781 19.574219 34.070312 19.574219 33.625 C 19.574219 33.179688 19.933594 32.824219 20.375 32.824219 Z M 11.148438 33 L 16.574219 33 C 17.015625 33 17.375 33.355469 17.375 33.800781 C 17.375 34.242188 17.015625 34.601562 16.574219 34.601562 L 11.148438 34.601562 C 10.710938 34.601562 10.351562 34.242188 10.351562 33.800781 C 10.351562 33.355469 10.710938 33 11.148438 33 Z M 20.375 35.824219 L 26.550781 35.824219 C 26.992188 35.824219 27.351562 36.179688 27.351562 36.625 C 27.351562 37.070312 26.992188 37.425781 26.550781 37.425781 L 20.375 37.425781 C 19.933594 37.425781 19.574219 37.070312 19.574219 36.625 C 19.574219 36.179688 19.933594 35.824219 20.375 35.824219 Z M 11.148438 36.199219 L 16.574219 36.199219 C 17.015625 36.199219 17.375 36.554688 17.375 37 C 17.375 37.445312 17.015625 37.800781 16.574219 37.800781 L 11.148438 37.800781 C 10.710938 37.800781 10.351562 37.445312 10.351562 37 C 10.351562 36.554688 10.710938 36.199219 11.148438 36.199219 Z M 11.148438 36.199219 "/>
</g>
</svg>
